<svg width="18" height="18" viewBox="0 0 18 18" fill="none" xmlns="http://www.w3.org/2000/svg">
<g id="Frame 113">
<path id="Union" fill-rule="evenodd" clip-rule="evenodd" d="M14.5 9.5C14.7761 9.5 15 9.27614 15 9C15 8.72386 14.7761 8.5 14.5 8.5L9.5 8.5L9.5 3.5C9.5 3.22386 9.27614 3 9 3C8.72386 3 8.5 3.22386 8.5 3.5L8.5 8.5L3.5 8.5C3.22386 8.5 3 8.72386 3 9C3 9.27614 3.22386 9.5 3.5 9.5L8.5 9.5L8.5 14.5C8.5 14.7761 8.72386 15 9 15C9.27614 15 9.5 14.7761 9.5 14.5L9.5 9.5L14.5 9.5Z" fill="white"/>
</g>
</svg>
