<svg width="18" height="18" viewBox="0 0 18 18" fill="none" xmlns="http://www.w3.org/2000/svg">
<g id="Frame 113">
<g id="Group 48095994">
<rect id="Rectangle 142" x="2" y="3.5" width="14" height="1" rx="0.5" fill="black"/>
<path id="Rectangle 143" d="M4 5.5V12.3C4 13.4201 4 13.9802 4.21799 14.408C4.40973 14.7843 4.71569 15.0903 5.09202 15.282C5.51984 15.5 6.07989 15.5 7.2 15.5H10.8C11.9201 15.5 12.4802 15.5 12.908 15.282C13.2843 15.0903 13.5903 14.7843 13.782 14.408C14 13.9802 14 13.4201 14 12.3V5.5" stroke="black" stroke-linecap="round"/>
<path id="Rectangle 146" d="M7 3.5V3.5C7 2.94772 7.44772 2.5 8 2.5H10C10.5523 2.5 11 2.94772 11 3.5V3.5" stroke="black" stroke-linecap="round"/>
<rect id="Rectangle 144" x="7" y="6.5" width="1" height="7" rx="0.5" fill="black"/>
<rect id="Rectangle 145" x="10" y="6.5" width="1" height="7" rx="0.5" fill="black"/>
</g>
</g>
</svg>
